# AST/ASF file generated using VICON BodyLanguage
# -----------------------------------------------
:version 1.10
:name VICON
:units
  mass 1.0
  length 0.45
  angle deg
:documentation
   .ast/.asf automatically generated from VICON data using
   VICON BodyBuilder and BodyLanguage model FoxedUp or BRILLIANT.MOD
:root
   order TX TY TZ RX RY RZ
   axis XYZ
   position 0 0 0  
   orientation 0 0 0 
:bonedata
  begin
     id 1 
     name lhipjoint
     direction 0.671379 -0.66392 0.329334 
     length 2.38647 
     axis 0 0 0  XYZ
  end
  begin
     id 2 
     name lfemur
     direction 0.34202 -0.939693 0  
     length 6.48179  
     axis 0 0 20  XYZ
    dof rx ry rz
    limits (-160.0 20.0)
           (-70.0 70.0)
           (-60.0 70.0)
  end
  begin
     id 3 
     name ltibia
     direction 0.34202 -0.939693 0   
     length 6.86524   
     axis 0 0 20   XYZ
    dof rx
    limits (-10.0 170.0)
  end
  begin
     id 4 
     name lfoot
     direction 0.204886 -0.562919 0.800715   
     length 1.73031   
     axis -90 7.62852e-016 20   XYZ
    dof rx rz
    limits (-45.0 90.0)
           (-70.0 20.0)
  end
  begin
     id 5 
     name ltoes
     direction 1.53548e-011 -4.21841e-011 1   
     length 0.828161   
     axis -90 7.62852e-016 20   XYZ
    dof rx
    limits (-90.0 20.0)
  end
  begin
     id 6 
     name rhipjoint
     direction -0.662732 -0.670855 0.332775   
     length 2.3618  
     axis 0 0 0  XYZ 
  end
  begin
     id 7 
     name rfemur
     direction -0.34202 -0.939693 0   
     length 6.3025   
     axis 0 0 -20   XYZ
    dof rx ry rz
    limits (-160.0 20.0)
           (-70.0 70.0)
           (-70.0 60.0)
  end
  begin
     id 8 
     name rtibia
     direction -0.34202 -0.939693 0   
     length 6.8732   
     axis 0 0 -20   XYZ
    dof rx
    limits (-10.0 170.0)
 end
 begin
     id 9 
     name rfoot
     direction -0.173856 -0.477665 0.861168   
     length 1.54784  
     axis -90 -7.62852e-016 -20   XYZ
    dof rx rz
    limits (-45.0 90.0)
           (-20.0 70.0)
  end
  begin
     id 10 
     name rtoes
     direction -1.53562e-011 -4.21802e-011 1   
     length 0.759618   
     axis -90 -7.62852e-016 -20   XYZ
    dof rx
    limits (-90.0 20.0)
  end
  begin
     id 11 
     name lowerback
     direction -0.0278357 0.999497 -0.0151789   
     length 1.97203   
     axis 0 0 0   XYZ
    dof rx ry rz
    limits (-20.0 45.0)
           (-30.0 30.0)
           (-30.0 30.0)
  end
  begin
     id 12 
     name upperback
     direction -0.00360622 0.997542 0.0699804   
     length 1.94709   
     axis 0 0 0   XYZ
    dof rx ry rz
    limits (-20.0 45.0)
           (-30.0 30.0)
           (-30.0 30.0)
  end
  begin
     id 13 
     name thorax
     direction 0.00907706 0.997048 0.0762461   
     length 1.95722   
     axis 0 0 0   XYZ
    dof rx ry rz
    limits (-20.0 45.0)
           (-30.0 30.0)
           (-30.0 30.0)
  end
  begin
     id 14 
     name lowerneck
     direction -0.0481835 0.99872 -0.0153927   
     length 1.63078   
     axis 0 0 0   XYZ
    dof rx ry rz
    limits (-20.0 45.0)
           (-30.0 30.0)
           (-30.0 30.0)
  end
  begin
     id 15 
     name upperneck
     direction 0.0859716 0.979226 -0.183644   
     length 1.62591   
     axis 0 0 0   XYZ
    dof rx ry rz
    limits (-20.0 45.0)
           (-30.0 30.0)
           (-30.0 30.0)
  end
  begin
     id 16
     name head
     direction 0.0324821 0.997629 -0.0606773  
     length 1.64811  
     axis 0 0 0   XYZ
    dof rx ry rz
    limits (-20.0 45.0)
           (-30.0 30.0)
           (-30.0 30.0)
  end
  begin
     id 17 
     name lclavicle
     direction 0.939609 0.311019 0.142835  
     length 3.70647  
     axis 0 0 0   XYZ
    dof ry rz
    limits (-20.0 10.0)
           (0.0 20.0)
  end
  begin
     id 18 
     name lhumerus
     direction 1 -4.48963e-011 -1.59838e-027   
     length 4.59207   
     axis 180 -30 -90   XYZ
    dof rx ry rz
    limits (-60.0 90.0)
           (-90.0 90.0)
           (-90.0 90.0)
  end
  begin
     id 19
     name lradius
     direction 1 -4.48957e-011 -1.3483e-026   
     length 2.98109   
     axis 180 -30 -90   XYZ
    dof rx
    limits (-10.0 170.0)
  end
  begin
     id 20
     name lwrist
     direction 1 -4.48954e-011 -3.11579e-026   
     length 1.49055   
     axis 2.00652e-014 90 90   XYZ
    dof ry
    limits (-180.0 0.0)
 end
  begin
     id 21 
     name lhand
     direction 1 -4.4911e-011 -6.23158e-026   
     length 0.480203   
     axis 3.97628e-014 90 90   XYZ
    dof rx rz
    limits (-90.0 90.0)
           (-45.0 45.0)
  end
  begin
     id 22 
     name lfingers
     direction 1 -4.48893e-011 -1.24632e-025   
     length 0.387152   
     axis 7.95256e-014 90 90   XYZ
    dof rx
    limits (0.0 90.0)
  end
  begin
     id 23
     name lthumb
     direction 0.707107 -6.35013e-011 0.707107   
     length 0.555875   
     axis -90 45 2.85299e-015   XYZ
    dof rx rz
    limits (-45.0 45.0)
           (-45.0 45.0)
  end
  begin
     id 24 
     name rclavicle
     direction -0.950396 0.30392 0.0661859   
     length 3.70894  
     axis 0 0 0   XYZ 
    dof ry rz
    limits (-10.0 20.0)
           (-20.0 0.0)
  end
  begin
     id 25 
     name rhumerus
     direction -1 -4.48957e-011 -2.96677e-027  
     length 4.76508   
     axis 180 30 90   XYZ
    dof rx ry rz
    limits (-90.0 60.0)
           (-90.0 90.0)
           (-90.0 90.0)
  end
  begin
     id 26 
     name rradius
     direction -1 -4.48974e-011 -1.44501e-026   
     length 2.78902   
     axis 180 30 90   XYZ
    dof rx
    limits (-10.0 170.0)
  end
  begin
     id 27 
     name rwrist
     direction -1 -4.48978e-011 -3.11579e-026   
     length 1.39451   
     axis 2.00652e-014 -90 -90   XYZ
    dof ry
    limits (-180.0 0.0)
  end
  begin
     id 28
     name rhand
     direction -1 -4.48956e-011 -6.23158e-026   
     length 0.721303   
     axis 3.97628e-014 -90 -90   XYZ
    dof rx rz
    limits (-90.0 90.0)
           (-45.0 45.0)
  end
  begin
     id 29
     name rfingers
     direction -1 -4.4899e-011 -1.24632e-025   
     length 0.581533   
     axis 7.95256e-014 -90 -90   XYZ
    dof rx
    limits (0.0 90.0)
  end
  begin
     id 30
     name rthumb
     direction -0.707107 -6.34911e-011 0.707107   
     length 0.834968   
     axis -90 -45 -2.85299e-015   XYZ
    dof rx rz
    limits (-45.0 45.0)
           (-45.0 45.0)
  end
:hierarchy
  begin
    root lhipjoint rhipjoint lowerback
    lhipjoint lfemur
    lfemur ltibia
    ltibia lfoot
    lfoot ltoes
    rhipjoint rfemur
    rfemur rtibia
    rtibia rfoot
    rfoot rtoes
    lowerback upperback
    upperback thorax
    thorax lowerneck lclavicle rclavicle
    lowerneck upperneck
    upperneck head
    lclavicle lhumerus
    lhumerus lradius
    lradius lwrist
    lwrist lhand lthumb
    lhand lfingers
    rclavicle rhumerus
    rhumerus rradius
    rradius rwrist
    rwrist rhand rthumb
    rhand rfingers
  end

#!OML:ASF I:\salsa\salsa 7_09\Patient 1\Session 1\dancerfemale.ASF
:FULLY-SPECIFIED
:DEGREES
963
root 13.4234 15.6937 -4.84367 -1982.86 -120.819 903.237
lowerback 13.7612 2.60268 -1.15065
upperback -4.31171 3.18033 -0.827083
thorax -12.519 1.54055 -1.03303
lowerneck -1.80439 -7.22197 -10.6558
upperneck 11.8041 -10.4422 9.8754
head 4.90149 -5.17905 4.21837
rclavicle 8.76982e-014 7.00716e-015
rhumerus -21.2409 -5.52417 -85.4885
rradius 68.803
rwrist 1.40233
rhand -4.91361 50.6285
rfingers 7.12502
rthumb 20.8764 21.7318
lclavicle 8.76982e-014 7.00716e-015
lhumerus -52.0027 -17.1666 109.465
lradius 96.8267
lwrist -37.0131
lhand -30.4696 32.8094
lfingers 7.12502
lthumb -3.77092 -297.244
rfemur -23.1528 -7.2373 17.2425
rtibia 38.5545
rfoot -19.7212 -5.4141
rtoes -10.5476
lfemur -4.63588 -9.8843 -25.7349
ltibia 41.124
lfoot -25.2709 10.6025
ltoes -19.6204
964
root 13.171 15.7311 -4.80743 -1977.68 -119.021 897.361
lowerback 13.1492 2.40419 1.21742
upperback -4.39057 3.4579 0.077313
thorax -12.1519 1.53997 -1.40843
lowerneck -2.68451 -6.52628 -9.91245
upperneck 12.7235 -9.45755 9.28353
head 5.16251 -4.6681 3.95342
rclavicle -4.1633e-014 -1.19768e-014
rhumerus -22.604 -4.09347 -86.6141
rradius 68.996
rwrist 1.1168
rhand -4.81209 51.1855
rfingers 7.12502
rthumb 20.9739 22.2995
lclavicle -4.1633e-014 -1.19768e-014
lhumerus -51.4959 -16.234 108.795
lradius 95.3408
lwrist -37.0455
lhand -30.0261 34.3243
lfingers 7.12502
lthumb -3.34265 -295.722
rfemur -21.3397 -7.13251 21.0234
rtibia 36.2503
rfoot -19.6245 -4.43086
rtoes -11.1088
lfemur -6.11073 -9.74084 -22.9964
ltibia 45.8843
lfoot -22.9737 13.757
ltoes -17.9117
965
root 12.9144 15.7833 -4.77323 -1972.91 -117.283 892.523
lowerback 12.3652 2.19087 3.03652
upperback -4.55663 3.53035 0.629799
thorax -11.7981 1.4684 -1.80635
lowerneck -3.5597 -5.71901 -9.23898
upperneck 13.4335 -8.33729 8.92175
head 5.37279 -4.08467 3.78754
rclavicle -2.56059e-014 1.55052e-014
rhumerus -24.0361 -2.37454 -87.8624
rradius 69.1571
rwrist 0.83727
rhand -4.54585 51.8962
rfingers 7.12502
rthumb 21.2297 23.0388
lclavicle -2.56059e-014 1.55052e-014
lhumerus -51.1261 -15.1606 107.516
lradius 93.9909
lwrist -37.061
lhand -29.2944 35.9905
lfingers 7.12502
lthumb -2.63606 -294.046
rfemur -19.8853 -7.30015 23.8748
rtibia 33.8957
rfoot -19.5637 -3.02007
rtoes -11.2337
lfemur -8.5031 -9.42822 -21.0955
ltibia 51.1011
lfoot -19.9377 16.262
ltoes -15.0884
966
root 12.6604 15.7962 -4.74084 -1969.12 -115.597 888.964
lowerback 11.711 2.2453 4.14536
upperback -4.83201 3.77912 0.775213
thorax -11.65 1.50957 -2.29421
lowerneck -3.97535 -5.03015 -8.40985
upperneck 13.7828 -7.45776 8.86485
head 5.43224 -3.60875 3.69002
rclavicle 4.76089e-014 4.57205e-015
rhumerus -25.8627 -1.19109 -88.825
rradius 69.4463
rwrist 0.740715
rhand -4.23329 52.6154
rfingers 7.12502
rthumb 21.5299 23.792
lclavicle 4.76089e-014 4.57205e-015
lhumerus -51.2529 -14.7032 106.13
lradius 92.694
lwrist -36.9884
lhand -28.2761 37.5819
lfingers 7.12502
lthumb -1.65258 -292.445
rfemur -18.5784 -7.4702 25.7366
rtibia 31.85
rfoot -19.6989 -1.26608
rtoes -11.6117
lfemur -11.8535 -7.30683 -19.638
ltibia 56.7767
lfoot -15.1445 17.1173
ltoes -11.8365
967
root 12.4087 15.7945 -4.71654 -1965.99 -113.796 886.064
lowerback 11.0814 2.69284 4.12254
upperback -4.94276 4.37591 1.09365
thorax -11.3863 1.81657 -2.02394
lowerneck -4.20681 -4.57927 -7.62717
upperneck 13.7061 -6.86243 8.68127
head 5.3601 -3.28452 3.54193
rclavicle -2.35933e-014 -1.41137e-014
rhumerus -27.6085 -0.443509 -88.8293
rradius 69.8375
rwrist 0.830686
rhand -3.48441 53.6099
rfingers 7.12502
rthumb 22.249 24.8706
lclavicle -2.35933e-014 -1.41137e-014
lhumerus -51.3464 -14.5728 105.318
lradius 91.2001
lwrist -36.6958
lhand -27.3235 38.9473
lfingers 7.12502
lthumb -0.7325 -291.074
rfemur -17.4661 -7.81517 27.0519
rtibia 30.527
rfoot -20.0663 0.865093
rtoes -12.1648
lfemur -15.4786 -4.97109 -18.7202
ltibia 62.4407
lfoot -9.75364 18.0276
ltoes -7.54226
968
root 12.1557 15.7509 -4.70582 -1961.04 -112.345 880.521
lowerback 11.0623 3.16044 4.65921
upperback -4.78283 5.15302 1.86236
thorax -11.1823 2.18653 -1.63708
lowerneck -4.26289 -4.22496 -6.89571
upperneck 13.2318 -6.35806 8.3855
head 5.14801 -3.01917 3.36264
rclavicle 7.0904e-014 1.82882e-014
rhumerus -29.1525 0.108787 -88.3198
rradius 70.2327
rwrist 1.03123
rhand -2.80476 54.7938
rfingers 7.12502
rthumb 22.9013 26.1338
lclavicle 7.0904e-014 1.82882e-014
lhumerus -51.4608 -14.4364 104.719
lradius 89.551
lwrist -36.2191
lhand -26.9279 40.8074
lfingers 7.12502
lthumb -0.350428 -289.213
rfemur -15.8679 -8.4092 29.2472
rtibia 29.5971
rfoot -20.4746 3.10102
rtoes -10.3917
lfemur -18.4754 -2.33445 -16.7463
ltibia 67.9747
lfoot -5.12138 18.8084
ltoes 5.51885
969
root 11.9154 15.6867 -4.68404 -1957.35 -110.928 876.706
lowerback 10.9441 3.63 4.64092
upperback -4.74614 5.80835 2.2725
thorax -11.0838 2.5204 -1.30221
lowerneck -4.13796 -3.90277 -6.1296
upperneck 12.5991 -5.90373 8.10367
head 4.86598 -2.78287 3.18104
rclavicle 1.94312e-014 -7.55382e-015
rhumerus -30.574 0.316225 -87.6723
rradius 70.5451
rwrist 1.32484
rhand -2.94718 55.5362
rfingers 7.12502
rthumb 22.7647 26.8593
lclavicle 1.94312e-014 -7.55382e-015
lhumerus -51.8484 -14.274 103.956
lradius 87.8093
lwrist -35.8707
lhand -26.9358 43.1227
lfingers 7.12502
lthumb -0.358077 -286.898
rfemur -14.5163 -9.62704 30.3468
rtibia 28.5317
rfoot -20.5043 5.86173
rtoes -8.54113
lfemur -21.7147 0.373836 -15.8169
ltibia 72.7812
lfoot -2.61264 19.0615
ltoes 13.1147
970
root 11.6595 15.6722 -4.65422 -1953.39 -109.667 872.553
lowerback 10.9442 4.03545 4.80237
upperback -4.71517 6.40033 2.54943
thorax -11.0401 2.80314 -1.20521
lowerneck -4.11485 -3.56134 -5.35785
upperneck 12.1238 -5.44061 7.88158
head 4.65616 -2.53696 3.01441
rclavicle 1.90585e-014 -6.36111e-015
rhumerus -31.7692 0.134944 -87.0468
rradius 70.7291
rwrist 1.7919
rhand -3.02117 56.3675
rfingers 7.12502
rthumb 22.6936 27.6819
lclavicle 1.90585e-014 -6.36111e-015
lhumerus -52.4286 -13.9584 102.884
lradius 86.0021
lwrist -35.9065
lhand -26.7281 45.3181
lfingers 7.12502
lthumb -0.157469 -284.702
rfemur -12.588 -10.1559 31.2523
rtibia 27.1201
rfoot -20.3865 7.95657
rtoes -11.1084
lfemur -24.4015 3.17699 -14.8475
ltibia 76.4949
lfoot -4.83832 17.7526
ltoes 6.96778
971
root 11.3877 15.7066 -4.60827 -1948.71 -109.046 867.388
lowerback 11.3562 4.1535 6.05497
upperback -4.7329 6.78725 2.58414
thorax -11.1573 2.88818 -1.95989
lowerneck -4.16305 -3.16417 -4.40285
upperneck 11.8333 -4.95166 7.80455
head 4.51751 -2.26229 2.86146
rclavicle 1.20886e-013 3.63776e-014
rhumerus -32.7983 -0.504335 -86.8415
rradius 70.8362
rwrist 2.38137
rhand -3.07149 57.7358
rfingers 7.12502
rthumb 22.6454 29.0443
lclavicle 1.20886e-013 3.63776e-014
lhumerus -53.209 -13.4864 101.164
lradius 84.1064
lwrist -36.1659
lhand -26.6615 46.8924
lfingers 7.12502
lthumb -0.0931845 -283.128
rfemur -10.0297 -10.1767 32.4247
rtibia 25.3408
rfoot -20.4792 9.17635
rtoes -5.91248
lfemur -26.4392 6.03505 -13.1612
ltibia 78.7621
lfoot -5.43243 15.1357
ltoes 3.15106
972
root 11.0986 15.7123 -4.54573 -1943.61 -108.384 861.853
lowerback 11.4561 4.3396 7.31333
upperback -4.67227 7.23768 2.61594
thorax -10.9791 3.01831 -2.69842
lowerneck -4.23201 -2.79851 -3.60217
upperneck 11.5408 -4.49269 7.73545
head 4.39281 -2.00908 2.73313
rclavicle 1.00386e-014 -1.03368e-014
rhumerus -33.606 -1.30618 -86.4763
rradius 70.9944
rwrist 2.81547
rhand -3.85451 59.0765
rfingers 7.12502
rthumb 21.8937 30.2952
lclavicle 1.00386e-014 -1.03368e-014
lhumerus -53.7981 -12.5117 99.143
lradius 81.801
lwrist -36.5841
lhand -25.693 50.2903
lfingers 7.12502
lthumb 0.842213 -279.732
rfemur -7.20425 -9.38706 33.4772
rtibia 23.1257
rfoot -20.3802 9.70956
rtoes -3.62712
lfemur -28.2156 8.39848 -11.6301
ltibia 79.9364
lfoot -6.48713 11.9324
ltoes -1.78375
973
root 10.8339 15.7092 -4.49241 -1941.34 -108.519 859.375
lowerback 11.6484 4.2463 8.01443
upperback -4.62392 7.24752 2.72857
thorax -10.976 2.97453 -2.974
lowerneck -4.38892 -2.51927 -3.14028
upperneck 11.2099 -4.11192 7.63837
head 4.28593 -1.80785 2.64592
rclavicle -1.23868e-013 -1.39149e-014
rhumerus -34.227 -1.99614 -85.7111
rradius 71.2947
rwrist 3.07311
rhand -4.79135 60.2414
rfingers 7.12502
rthumb 20.9939 31.3577
lclavicle -1.23868e-013 -1.39149e-014
lhumerus -54.1378 -11.164 97.1172
lradius 79.1304
lwrist -37.2499
lhand -23.8391 51.2681
lfingers 7.12502
lthumb 2.63271 -278.768
rfemur -4.73425 -9.13082 34.1486
rtibia 20.9625
rfoot -20.2942 9.61764
rtoes -5.96181
lfemur -30.4759 9.04235 -10.8627
ltibia 80.3004
lfoot -8.3442 9.6385
ltoes -3.91503
974
root 10.575 15.6976 -4.44467 -1941.23 -108.708 859.32
lowerback 11.758 4.11197 8.06264
upperback -4.61412 7.08708 2.73053
thorax -11.0414 2.89073 -2.97845
lowerneck -4.62202 -2.31385 -2.81185
upperneck 10.8927 -3.81617 7.50774
head 4.20462 -1.65358 2.56476
rclavicle -1.7344e-014 8.74653e-015
rhumerus -34.8478 -2.55388 -84.8984
rradius 71.788
rwrist 3.11036
rhand -5.52998 61.2649
rfingers 7.12502
rthumb 20.2841 32.3041
lclavicle -1.7344e-014 8.74653e-015
lhumerus -54.5078 -9.98543 95.1349
lradius 76.4891
lwrist -38.4499
lhand -23.0693 52.0849
lfingers 7.12502
lthumb 3.37614 -277.962
rfemur -2.92603 -8.66908 34.3318
rtibia 19.518
rfoot -20.5833 8.77985
rtoes -8.40718
lfemur -32.904 8.53814 -10.9136
ltibia 79.7523
lfoot -9.90758 7.702
ltoes -9.83905
975
root 10.3019 15.6802 -4.37723 -1941.73 -108.755 860.159
lowerback 11.4162 4.05791 7.93388
upperback -4.62355 6.94882 2.64774
thorax -10.8636 2.84222 -2.94178
lowerneck -4.8869 -2.15636 -2.61961
upperneck 10.5483 -3.56454 7.31718
head 4.12519 -1.52877 2.4851
rclavicle -1.75427e-014 1.94809e-014
rhumerus -35.4424 -3.01154 -84.0269
rradius 72.303
rwrist 2.93411
rhand -5.93669 62.2868
rfingers 7.12502
rthumb 19.8932 33.285
lclavicle -1.75427e-014 1.94809e-014
lhumerus -54.8767 -8.89358 93.2016
lradius 73.8383
lwrist -40.009
lhand -23.7317 52.1165
lfingers 7.12502
lthumb 2.73647 -277.921
rfemur -1.69637 -8.58523 34.1605
rtibia 18.6297
rfoot -21.0718 8.15851
rtoes -8.51112
lfemur -35.2347 7.78035 -11.3465
ltibia 78.2999
lfoot -12.6082 6.11783
ltoes -14.9516
